<?xml version="1.0" encoding="UTF-8" standalone="no"?>
<svg
   height="71.320549"
   viewBox="0 0 71.336975 71.320549"
   width="71.336975"
   version="1.1"
   id="svg2"
   xml:space="preserve"
   xmlns="http://www.w3.org/2000/svg"
   xmlns:svg="http://www.w3.org/2000/svg"><defs
     id="defs2" /><path
     style="fill:#000000"
     d="M 4.8566885,70.238307 C 0.00832754,67.740674 -0.19803646,66.187377 0.07896554,34.276371 L 0.33698054,4.5527422 2.6147585,2.2763712 4.8925365,2.0935058e-7 H 35.836979 66.781429 L 69.059199,2.2777782 l 2.27778,2.277778 V 35.5 66.444444 L 69.060609,68.722222 66.784239,71 37.060609,71.258015 C 14.476668,71.454053 6.7412085,71.209117 4.8566885,70.238307 Z M 21.836979,44 V 26.5 h -5.499998 -5.5 V 44 61.5 h 5.5 5.499998 z m 17.16153,6.533202 C 39.371869,38.43614 40.354669,36.25 45.419709,36.25 c 4.50635,0 5.41727,2.428303 5.41727,14.44113 V 61.5 h 5.5 5.5 V 47.95034 c 0,-15.08997 -0.922,-18.324408 -5.96726,-20.933413 -5.41233,-2.798822 -13.27424,-1.385142 -16.26742,2.925109 -0.40975,0.590047 -0.74146,0.06283 -0.75,-1.192036 -0.014,-2.05875 -0.48282,-2.25 -5.51532,-2.25 h -5.5 V 44 61.5 h 5.41153 5.41152 z M 20.836979,20.5 c 4.0293,-4.029297 1.35004,-10.9999998 -4.22796,-10.9999998 -4.048186,0 -6.7720385,2.5445458 -6.7720385,6.3262468 0,6.079041 6.7336685,8.940086 10.9999985,4.673753 z"
     id="path3" /></svg>
