<?xml version="1.0" encoding="UTF-8" standalone="no"?>
<svg
   height="71.334229"
   viewBox="0 0 71.313263 71.334229"
   width="71.313263"
   version="1.1"
   id="svg2"
   xml:space="preserve"
   xmlns="http://www.w3.org/2000/svg"
   xmlns:svg="http://www.w3.org/2000/svg"><defs
     id="defs2" /><path
     style="fill:#000000"
     d="m 10.764487,71.289937 c -1.8828798,-0.22388 -3.3417698,-0.65319 -4.6104298,-1.35673 -3.51219,-1.9477 -5.68561002,-5.24214 -6.08363002,-9.22146 -0.13677,-1.36742 -0.0557,-50.21851 0.0845,-50.92513 C 1.1761972,4.639777 4.6577572,1.155419 9.7813772,0.15240898 c 0.8461498,-0.16564 49.8102398,-0.21558 51.2115798,-0.0522 5.28103,0.6156 9.40693,4.62464802 10.21971,9.93026802 0.13487,0.88043 0.13373,50.40407 -10e-4,51.27345 -0.82328,5.30513 -4.92036,9.30072 -10.1837,9.93142 -0.73779,0.0884 -49.53317,0.14143 -50.26331,0.0546 z m 29.46831,-18.83381 c 14.39779,-0.27791 16.48444,-0.76182 18.11804,-4.2017 1.78387,-3.75633 1.80972,-21.17753 0.0372,-25.08668 -0.77153,-1.70157 -2.25222,-2.8984 -4.14622,-3.35134 -5.75653,-1.37666 -34.08034,-1.27107 -37.84183,0.14107 -1.86677,0.70083 -3.37095,2.38832 -3.85024,4.31946 -1.26713,5.10547 -1.18123,19.29811 0.14083,23.26812 0.58981,1.77114 2.11128,3.28215 3.89092,3.86413 2.36521,0.77348 13.13058,1.25002 23.65127,1.04694 z m -9.36994,-16.78494 v -7.18309 l 0.19158,0.0993 c 0.35857,0.18593 12.1725,7.01559 12.22315,7.06624 0.0371,0.0371 -12.01556,7.03715 -12.35802,7.17739 -0.0312,0.0128 -0.0567,-3.20917 -0.0567,-7.15987 z"
     id="path4" /></svg>
